<svg width="540" height="456" viewBox="0 0 540 456" fill="none" xmlns="http://www.w3.org/2000/svg">
<mask id="path-1-outside-1_112_13" maskUnits="userSpaceOnUse" x="-2" y="-2" width="544" height="460" fill="black">
<rect fill="white" x="-2" y="-2" width="544" height="460"/>
<path d="M29.6094 144.516C14.7656 138.656 5 131.039 0.3125 121.664C11.4453 100.57 18.8672 86.4102 22.5781 79.1836C26.4844 71.957 30.8789 60.9219 35.7617 46.0781C40.8398 31.0391 44.3555 15.9023 46.3086 0.667969H249.336H493.379C498.262 38.9492 513.496 79.2812 539.082 121.664C534.59 131.039 524.141 138.656 507.734 144.516C491.719 115.414 468.086 91.1953 436.836 71.8594C405.781 52.3281 365.449 42.5625 315.84 42.5625C314.277 91 313.496 148.422 313.496 214.828C313.496 299.594 314.473 361.41 316.426 400.277C316.816 407.504 338.594 413.266 381.758 417.562C385.078 430.062 384.688 442.66 380.586 455.355C317.305 453.793 280.488 453.012 270.137 453.012C254.512 453.012 210.762 453.793 138.887 455.355C134.004 441.879 134.004 429.281 138.887 417.562C181.27 413.266 202.656 407.699 203.047 400.863C205 351.645 205.977 289.633 205.977 214.828C205.977 152.328 205.195 95.4922 203.633 44.3203C122.383 54.8672 64.375 88.2656 29.6094 144.516ZM112.52 32.3086L215.059 29.3789C217.012 94.2227 217.988 156.039 217.988 214.828C217.988 290.414 217.012 352.426 215.059 400.863C214.668 415.316 192.012 424.691 147.09 428.988C145.527 432.113 145.527 436.703 147.09 442.758C180.293 441.586 214.375 441 249.336 441C290.938 441 330.879 441.586 369.16 442.758C370.723 439.242 370.723 434.652 369.16 428.988C304.316 425.082 271.699 415.707 271.309 400.863C269.355 336.02 268.379 274.008 268.379 214.828C268.379 139.633 269.355 77.8164 271.309 29.3789L316.426 30.5508C413.691 32.8945 479.316 65.9023 513.301 129.574C518.379 127.621 521.699 124.984 523.262 121.664C503.73 81.8203 481.855 53.6953 457.637 37.2891C433.418 20.8828 397.383 12.6797 349.531 12.6797H249.336C228.047 12.6797 195.918 12.582 152.949 12.3867C109.98 12.1914 78.0469 12.0938 57.1484 12.0938C56.3672 18.7344 55 25.668 53.0469 32.8945C51.0938 40.1211 49.2383 46.2734 47.4805 51.3516C45.918 56.2344 43.1836 62.7773 39.2773 70.9805C35.5664 79.1836 33.0273 84.75 31.6602 87.6797C30.293 90.4141 27.168 96.4688 22.2852 105.844C17.5977 115.219 14.8633 120.492 14.082 121.664C15.6445 124.984 19.0625 127.621 24.3359 129.574C38.2031 106.723 48.9453 89.8281 56.5625 78.8906C64.1797 67.9531 73.1641 57.5039 83.5156 47.543C94.0625 37.3867 103.73 32.3086 112.52 32.3086Z"/>
</mask>
<path d="M29.6094 144.516C14.7656 138.656 5 131.039 0.3125 121.664C11.4453 100.57 18.8672 86.4102 22.5781 79.1836C26.4844 71.957 30.8789 60.9219 35.7617 46.0781C40.8398 31.0391 44.3555 15.9023 46.3086 0.667969H249.336H493.379C498.262 38.9492 513.496 79.2812 539.082 121.664C534.59 131.039 524.141 138.656 507.734 144.516C491.719 115.414 468.086 91.1953 436.836 71.8594C405.781 52.3281 365.449 42.5625 315.84 42.5625C314.277 91 313.496 148.422 313.496 214.828C313.496 299.594 314.473 361.41 316.426 400.277C316.816 407.504 338.594 413.266 381.758 417.562C385.078 430.062 384.688 442.66 380.586 455.355C317.305 453.793 280.488 453.012 270.137 453.012C254.512 453.012 210.762 453.793 138.887 455.355C134.004 441.879 134.004 429.281 138.887 417.562C181.27 413.266 202.656 407.699 203.047 400.863C205 351.645 205.977 289.633 205.977 214.828C205.977 152.328 205.195 95.4922 203.633 44.3203C122.383 54.8672 64.375 88.2656 29.6094 144.516ZM112.52 32.3086L215.059 29.3789C217.012 94.2227 217.988 156.039 217.988 214.828C217.988 290.414 217.012 352.426 215.059 400.863C214.668 415.316 192.012 424.691 147.09 428.988C145.527 432.113 145.527 436.703 147.09 442.758C180.293 441.586 214.375 441 249.336 441C290.938 441 330.879 441.586 369.16 442.758C370.723 439.242 370.723 434.652 369.16 428.988C304.316 425.082 271.699 415.707 271.309 400.863C269.355 336.02 268.379 274.008 268.379 214.828C268.379 139.633 269.355 77.8164 271.309 29.3789L316.426 30.5508C413.691 32.8945 479.316 65.9023 513.301 129.574C518.379 127.621 521.699 124.984 523.262 121.664C503.73 81.8203 481.855 53.6953 457.637 37.2891C433.418 20.8828 397.383 12.6797 349.531 12.6797H249.336C228.047 12.6797 195.918 12.582 152.949 12.3867C109.98 12.1914 78.0469 12.0938 57.1484 12.0938C56.3672 18.7344 55 25.668 53.0469 32.8945C51.0938 40.1211 49.2383 46.2734 47.4805 51.3516C45.918 56.2344 43.1836 62.7773 39.2773 70.9805C35.5664 79.1836 33.0273 84.75 31.6602 87.6797C30.293 90.4141 27.168 96.4688 22.2852 105.844C17.5977 115.219 14.8633 120.492 14.082 121.664C15.6445 124.984 19.0625 127.621 24.3359 129.574C38.2031 106.723 48.9453 89.8281 56.5625 78.8906C64.1797 67.9531 73.1641 57.5039 83.5156 47.543C94.0625 37.3867 103.73 32.3086 112.52 32.3086Z" fill="url(#paint0_linear_112_13)"/>
<path d="M29.6094 144.516L28.875 146.376L30.4311 146.99L31.3107 145.567L29.6094 144.516ZM0.3125 121.664L-1.45627 120.731L-1.93592 121.639L-1.47635 122.558L0.3125 121.664ZM22.5781 79.1836L20.8187 78.2326L20.8087 78.2512L20.799 78.27L22.5781 79.1836ZM35.7617 46.0781L33.8668 45.4383L33.8643 45.4457L33.8619 45.4532L35.7617 46.0781ZM46.3086 0.667969V-1.33203H44.5486L44.3248 0.41364L46.3086 0.667969ZM493.379 0.667969L495.363 0.414917L495.14 -1.33203H493.379V0.667969ZM539.082 121.664L540.886 122.528L541.352 121.555L540.794 120.63L539.082 121.664ZM507.734 144.516L505.982 145.48L506.803 146.972L508.407 146.399L507.734 144.516ZM436.836 71.8594L435.771 73.5524L435.777 73.5563L435.784 73.5601L436.836 71.8594ZM315.84 42.5625V40.5625H313.903L313.841 42.498L315.84 42.5625ZM316.426 400.277L314.428 400.378L314.429 400.385L316.426 400.277ZM381.758 417.562L383.691 417.049L383.335 415.71L381.956 415.572L381.758 417.562ZM380.586 455.355L380.537 457.355L382.03 457.392L382.489 455.97L380.586 455.355ZM138.887 455.355L137.006 456.037L137.495 457.386L138.93 457.355L138.887 455.355ZM138.887 417.562L138.685 415.573L137.499 415.693L137.041 416.793L138.887 417.562ZM203.047 400.863L205.044 400.977L205.045 400.96L205.045 400.943L203.047 400.863ZM203.633 44.3203L205.632 44.2593L205.565 42.0528L203.375 42.337L203.633 44.3203ZM112.52 32.3086V34.3086H112.548L112.577 34.3078L112.52 32.3086ZM215.059 29.3789L217.058 29.3187L216.998 27.3227L215.001 27.3797L215.059 29.3789ZM215.059 400.863L213.06 400.783L213.06 400.796L213.059 400.809L215.059 400.863ZM147.09 428.988L146.899 426.997L145.796 427.103L145.301 428.094L147.09 428.988ZM147.09 442.758L145.153 443.258L145.555 444.813L147.16 444.757L147.09 442.758ZM369.16 442.758L369.099 444.757L370.442 444.798L370.988 443.57L369.16 442.758ZM369.16 428.988L371.088 428.456L370.708 427.078L369.28 426.992L369.16 428.988ZM271.309 400.863L273.308 400.811L273.308 400.803L271.309 400.863ZM271.309 29.3789L271.361 27.3796L269.39 27.3284L269.31 29.2983L271.309 29.3789ZM316.426 30.5508L316.374 32.5501L316.378 32.5502L316.426 30.5508ZM513.301 129.574L511.536 130.516L512.369 132.076L514.019 131.441L513.301 129.574ZM523.262 121.664L525.071 122.516L525.48 121.646L525.058 120.784L523.262 121.664ZM57.1484 12.0938V10.0938H55.3699L55.1621 11.8601L57.1484 12.0938ZM47.4805 51.3516L45.5905 50.6973L45.5828 50.7196L45.5756 50.742L47.4805 51.3516ZM39.2773 70.9805L37.4716 70.1206L37.4632 70.1383L37.4551 70.1561L39.2773 70.9805ZM31.6602 87.6797L33.449 88.5741L33.4611 88.5499L33.4725 88.5255L31.6602 87.6797ZM22.2852 105.844L20.5113 104.92L20.5037 104.935L20.4963 104.949L22.2852 105.844ZM14.082 121.664L12.4179 120.555L11.7917 121.494L12.2724 122.516L14.082 121.664ZM24.3359 129.574L23.6413 131.45L25.1893 132.023L26.0457 130.612L24.3359 129.574ZM83.5156 47.543L84.9024 48.9841L84.9029 48.9836L83.5156 47.543ZM30.3437 142.655C15.7268 136.885 6.47789 129.523 2.10135 120.77L-1.47635 122.558C3.52211 132.555 13.8044 140.427 28.875 146.376L30.3437 142.655ZM2.08127 122.598C13.2133 101.505 20.6404 87.3354 24.3573 80.0972L20.799 78.27C17.094 85.485 9.67733 99.6353 -1.45627 120.731L2.08127 122.598ZM24.3375 80.1346C28.3299 72.7487 32.7685 61.5781 37.6616 46.7031L33.8619 45.4532C28.9893 60.2657 24.6388 71.1654 20.8187 78.2326L24.3375 80.1346ZM37.6566 46.718C42.7756 31.5578 46.3219 16.2921 48.2924 0.922297L44.3248 0.41364C42.3891 15.5126 38.9041 30.5203 33.8668 45.4383L37.6566 46.718ZM46.3086 2.66797H249.336V-1.33203H46.3086V2.66797ZM249.336 2.66797H493.379V-1.33203H249.336V2.66797ZM491.395 0.921021C496.321 39.5449 511.679 80.1413 537.37 122.698L540.794 120.63C515.313 78.4212 500.202 38.3536 495.363 0.414917L491.395 0.921021ZM537.278 120.8C533.127 129.464 523.287 136.837 507.062 142.632L508.407 146.399C524.994 140.475 536.053 132.614 540.886 122.528L537.278 120.8ZM509.487 143.551C493.288 114.117 469.399 89.656 437.888 70.1586L435.784 73.5601C466.773 92.7346 490.15 116.711 505.982 145.48L509.487 143.551ZM437.901 70.1664C406.433 50.3756 365.697 40.5625 315.84 40.5625V44.5625C365.201 44.5625 405.129 54.2807 435.771 73.5524L437.901 70.1664ZM313.841 42.498C312.277 90.9632 311.496 148.408 311.496 214.828H315.496C315.496 148.436 316.277 91.0368 317.839 42.627L313.841 42.498ZM311.496 214.828C311.496 299.598 312.472 361.457 314.428 400.378L318.423 400.177C316.473 361.363 315.496 299.59 315.496 214.828H311.496ZM314.429 400.385C314.584 403.249 316.809 405.444 319.718 407.148C322.72 408.907 327.031 410.494 332.54 411.952C343.587 414.875 359.95 417.401 381.56 419.553L381.956 415.572C360.402 413.427 344.294 410.924 333.563 408.085C328.184 406.662 324.28 405.185 321.74 403.697C319.106 402.154 318.463 400.919 318.423 400.169L314.429 400.385ZM379.825 418.076C383.043 430.193 382.67 442.399 378.683 454.741L382.489 455.97C386.705 442.922 387.113 429.932 383.691 417.049L379.825 418.076ZM380.635 453.356C317.37 451.794 280.52 451.012 270.137 451.012V455.012C280.457 455.012 317.24 455.792 380.537 457.355L380.635 453.356ZM270.137 451.012C254.485 451.012 210.708 451.794 138.843 453.356L138.93 457.355C210.815 455.792 254.539 455.012 270.137 455.012V451.012ZM140.767 454.674C136.031 441.603 136.068 429.528 140.733 418.332L137.041 416.793C131.94 429.035 131.977 442.155 137.006 456.037L140.767 454.674ZM139.088 419.552C160.307 417.401 176.372 414.923 187.218 412.101C192.626 410.693 196.859 409.169 199.807 407.49C202.642 405.875 204.884 403.771 205.044 400.977L201.05 400.749C201.014 401.373 200.436 402.529 197.827 404.014C195.331 405.436 191.495 406.854 186.21 408.23C175.669 410.973 159.85 413.427 138.685 415.573L139.088 419.552ZM205.045 400.943C207 351.688 207.977 289.647 207.977 214.828H203.977C203.977 289.618 203 351.601 201.048 400.784L205.045 400.943ZM207.977 214.828C207.977 152.312 207.195 95.4553 205.632 44.2593L201.634 44.3814C203.196 95.529 203.977 152.344 203.977 214.828H207.977ZM203.375 42.337C121.685 52.941 63.0648 86.5814 27.9081 143.464L31.3107 145.567C65.6852 89.9498 123.081 56.7934 203.89 46.3037L203.375 42.337ZM112.577 34.3078L215.116 31.3781L215.001 27.3797L112.462 30.3094L112.577 34.3078ZM213.06 29.4391C215.012 94.2648 215.988 156.061 215.988 214.828H219.988C219.988 156.017 219.011 94.1805 217.058 29.3187L213.06 29.4391ZM215.988 214.828C215.988 290.4 215.012 352.383 213.06 400.783L217.057 400.944C219.012 352.469 219.988 290.428 219.988 214.828H215.988ZM213.059 400.809C212.898 406.789 208.155 412.274 197.009 416.886C185.958 421.459 169.299 424.855 146.899 426.997L147.28 430.979C169.802 428.825 186.933 425.385 198.538 420.582C210.048 415.82 216.829 409.391 217.058 400.917L213.059 400.809ZM145.301 428.094C143.407 431.881 143.556 437.067 145.153 443.258L149.026 442.258C147.499 436.339 147.647 432.346 148.879 429.883L145.301 428.094ZM147.16 444.757C180.339 443.586 214.397 443 249.336 443V439C214.353 439 180.247 439.586 147.019 440.759L147.16 444.757ZM249.336 443C290.919 443 330.84 443.586 369.099 444.757L369.221 440.759C330.918 439.586 290.956 439 249.336 439V443ZM370.988 443.57C372.815 439.459 372.712 434.342 371.088 428.456L367.232 429.52C368.734 434.963 368.63 439.025 367.333 441.946L370.988 443.57ZM369.28 426.992C336.898 425.041 312.709 421.731 296.617 417.105C288.56 414.79 282.678 412.184 278.827 409.358C274.999 406.549 273.384 403.691 273.308 400.811L269.309 400.916C269.429 405.458 272.037 409.338 276.461 412.583C280.862 415.812 287.26 418.578 295.512 420.95C312.037 425.699 336.579 429.029 369.04 430.985L369.28 426.992ZM273.308 400.803C271.355 335.977 270.379 273.986 270.379 214.828H266.379C266.379 274.03 267.356 336.062 269.31 400.923L273.308 400.803ZM270.379 214.828C270.379 139.647 271.355 77.8598 273.307 29.4595L269.31 29.2983C267.356 77.773 266.379 139.619 266.379 214.828H270.379ZM271.257 31.3782L316.374 32.5501L316.478 28.5515L271.361 27.3796L271.257 31.3782ZM316.378 32.5502C413.208 34.8835 478.008 67.6976 511.536 130.516L515.065 128.632C480.625 64.1071 414.175 30.9056 316.474 28.5514L316.378 32.5502ZM514.019 131.441C519.349 129.391 523.203 126.485 525.071 122.516L521.452 120.812C520.195 123.484 517.409 125.851 512.583 127.708L514.019 131.441ZM525.058 120.784C505.446 80.7761 483.377 52.3106 458.758 35.6332L456.515 38.9449C480.334 55.0801 502.015 82.8645 521.466 122.544L525.058 120.784ZM458.758 35.6332C434.059 18.9011 397.552 10.6797 349.531 10.6797V14.6797C397.214 14.6797 432.777 22.8645 456.515 38.9449L458.758 35.6332ZM349.531 10.6797H249.336V14.6797H349.531V10.6797ZM249.336 10.6797C228.052 10.6797 195.926 10.582 152.958 10.3867L152.94 14.3867C195.91 14.582 228.042 14.6797 249.336 14.6797V10.6797ZM152.958 10.3867C109.989 10.1914 78.0516 10.0938 57.1484 10.0938V14.0938C78.0421 14.0938 109.972 14.1914 152.94 14.3867L152.958 10.3867ZM55.1621 11.8601C54.3936 18.3927 53.0467 25.2297 51.1161 32.3727L54.9776 33.4163C56.9533 26.1062 58.3408 19.076 59.1347 12.3274L55.1621 11.8601ZM51.1161 32.3727C49.1708 39.5705 47.3286 45.676 45.5905 50.6973L49.3704 52.0058C51.1479 46.8708 53.0167 40.6716 54.9776 33.4163L51.1161 32.3727ZM45.5756 50.742C44.0537 55.4981 41.3638 61.9469 37.4716 70.1206L41.0831 71.8403C45.0033 63.6077 47.7823 56.9707 49.3853 51.9611L45.5756 50.742ZM37.4551 70.1561C33.7437 78.3604 31.2093 83.9165 29.8478 86.8339L33.4725 88.5255C34.8454 85.5835 37.3892 80.0067 41.0996 71.8048L37.4551 70.1561ZM29.8713 86.7853C28.513 89.5019 25.3962 95.5409 20.5113 104.92L24.059 106.768C28.9397 97.3966 32.073 91.3262 33.449 88.5741L29.8713 86.7853ZM20.4963 104.949C18.1542 109.634 16.3038 113.286 14.9432 115.909C13.5553 118.586 12.7333 120.082 12.4179 120.555L15.7461 122.773C16.212 122.075 17.1478 120.347 18.4943 117.751C19.8681 115.101 21.7286 111.429 24.074 106.738L20.4963 104.949ZM12.2724 122.516C14.1521 126.51 18.1321 129.409 23.6413 131.45L25.0306 127.699C19.9929 125.833 17.137 123.459 15.8917 120.812L12.2724 122.516ZM26.0457 130.612C39.9082 107.768 50.6239 90.9175 58.2037 80.0336L54.9213 77.7476C47.2668 88.7387 36.4981 105.677 22.6261 128.537L26.0457 130.612ZM58.2037 80.0336C65.7405 69.2115 74.6379 58.8612 84.9024 48.9841L82.1289 46.1018C71.6902 56.1466 62.6189 66.6947 54.9213 77.7476L58.2037 80.0336ZM84.9029 48.9836C95.3105 38.9615 104.5 34.3086 112.52 34.3086V30.3086C102.961 30.3086 92.8145 35.812 82.1283 46.1023L84.9029 48.9836Z" fill="black" mask="url(#path-1-outside-1_112_13)"/>
<defs>
<linearGradient id="paint0_linear_112_13" x1="236" y1="-173" x2="236" y2="582" gradientUnits="userSpaceOnUse">
<stop stop-color="#00E0FF"/>
<stop offset="1" stop-color="#FFF" stop-opacity="0.91"/>
</linearGradient>
</defs>
</svg>
