<svg width="938" height="297" viewBox="0 0 938 297" fill="none" xmlns="http://www.w3.org/2000/svg">
<path d="M0.318183 31.3409V0.0909004H218.5V31.3409H127.023V291H91.7955V31.3409H0.318183ZM328.159 295.545C307.136 295.545 289.002 290.905 273.756 281.625C258.604 272.25 246.909 259.182 238.67 242.42C230.527 225.564 226.455 205.962 226.455 183.614C226.455 161.265 230.527 141.568 238.67 124.523C246.909 107.383 258.367 94.0303 273.045 84.4659C287.818 74.8068 305.053 69.9773 324.75 69.9773C336.114 69.9773 347.335 71.8712 358.415 75.6591C369.494 79.447 379.58 85.6023 388.67 94.125C397.761 102.553 405.006 113.727 410.403 127.648C415.801 141.568 418.5 158.708 418.5 179.068V193.273H250.318V164.295H384.409C384.409 151.985 381.947 141 377.023 131.341C372.193 121.682 365.28 114.059 356.284 108.472C347.383 102.884 336.871 100.091 324.75 100.091C311.398 100.091 299.845 103.405 290.091 110.034C280.432 116.568 272.998 125.091 267.79 135.602C262.581 146.114 259.977 157.383 259.977 169.409V188.727C259.977 205.205 262.818 219.172 268.5 230.631C274.277 241.994 282.278 250.659 292.506 256.625C302.733 262.496 314.617 265.432 328.159 265.432C336.966 265.432 344.92 264.201 352.023 261.739C359.22 259.182 365.422 255.394 370.631 250.375C375.839 245.261 379.864 238.917 382.705 231.341L415.091 240.432C411.682 251.417 405.953 261.076 397.903 269.409C389.854 277.648 379.911 284.087 368.074 288.727C356.237 293.273 342.932 295.545 328.159 295.545ZM503.017 0.0909004V291H469.494V0.0909004H503.017ZM718.962 121.682L688.848 130.205C686.954 125.186 684.161 120.309 680.467 115.574C676.869 110.744 671.945 106.767 665.695 103.642C659.445 100.517 651.443 98.9545 641.689 98.9545C628.337 98.9545 617.21 102.032 608.308 108.188C599.501 114.248 595.098 121.966 595.098 131.341C595.098 139.674 598.128 146.256 604.189 151.085C610.25 155.915 619.719 159.939 632.598 163.159L664.984 171.114C684.492 175.848 699.028 183.093 708.592 192.847C718.157 202.506 722.939 214.958 722.939 230.205C722.939 242.705 719.34 253.879 712.143 263.727C705.041 273.576 695.098 281.341 682.314 287.023C669.53 292.705 654.662 295.545 637.712 295.545C615.458 295.545 597.039 290.716 582.456 281.057C567.873 271.398 558.64 257.288 554.757 238.727L586.575 230.773C589.606 242.515 595.335 251.322 603.763 257.193C612.286 263.064 623.412 266 637.143 266C652.768 266 665.174 262.686 674.359 256.057C683.64 249.333 688.28 241.284 688.28 231.909C688.28 224.333 685.628 217.989 680.325 212.875C675.022 207.667 666.878 203.784 655.893 201.227L619.53 192.705C599.549 187.97 584.871 180.631 575.496 170.688C566.215 160.65 561.575 148.102 561.575 133.045C561.575 120.735 565.032 109.845 571.945 100.375C578.952 90.9053 588.469 83.4716 600.496 78.0739C612.617 72.6761 626.348 69.9773 641.689 69.9773C663.28 69.9773 680.231 74.7121 692.541 84.1818C704.946 93.6515 713.753 106.152 718.962 121.682ZM837.605 296.114C823.779 296.114 811.232 293.509 799.963 288.301C788.694 282.998 779.745 275.375 773.116 265.432C766.488 255.394 763.173 243.273 763.173 229.068C763.173 216.568 765.635 206.436 770.56 198.67C775.484 190.811 782.065 184.655 790.304 180.205C798.543 175.754 807.634 172.439 817.577 170.261C827.615 167.989 837.7 166.189 847.832 164.864C861.09 163.159 871.838 161.881 880.077 161.028C888.41 160.081 894.471 158.519 898.259 156.341C902.141 154.163 904.082 150.375 904.082 144.977V143.841C904.082 129.826 900.247 118.936 892.577 111.17C885.001 103.405 873.495 99.5227 858.06 99.5227C842.056 99.5227 829.509 103.027 820.418 110.034C811.327 117.042 804.935 124.523 801.241 132.477L769.423 121.114C775.105 107.856 782.681 97.5341 792.151 90.1477C801.715 82.6667 812.132 77.4583 823.401 74.5227C834.764 71.4924 845.938 69.9773 856.923 69.9773C863.931 69.9773 871.98 70.8295 881.071 72.5341C890.257 74.1439 899.111 77.5057 907.634 82.6193C916.251 87.733 923.401 95.4508 929.082 105.773C934.764 116.095 937.605 129.92 937.605 147.25V291H904.082V261.455H902.378C900.105 266.189 896.317 271.256 891.014 276.653C885.711 282.051 878.656 286.644 869.849 290.432C861.043 294.22 850.295 296.114 837.605 296.114ZM842.719 266C855.976 266 867.151 263.396 876.241 258.188C885.427 252.979 892.34 246.256 896.98 238.017C901.715 229.778 904.082 221.114 904.082 212.023V181.341C902.662 183.045 899.537 184.608 894.707 186.028C889.973 187.354 884.48 188.538 878.23 189.58C872.075 190.527 866.062 191.379 860.19 192.136C854.414 192.799 849.726 193.367 846.128 193.841C837.416 194.977 829.272 196.824 821.696 199.381C814.215 201.843 808.154 205.583 803.514 210.602C798.969 215.527 796.696 222.25 796.696 230.773C796.696 242.42 801.005 251.227 809.622 257.193C818.334 263.064 829.366 266 842.719 266Z" fill="url(#paint0_radial_101_12)"/>
<defs>
<radialGradient id="paint0_radial_101_12" cx="0" cy="0" r="1" gradientUnits="userSpaceOnUse" gradientTransform="translate(84 291) rotate(-22.0536) scale(653.84 1334.7)">
<stop stop-color="#F00A0A"/>
<stop offset="1"/>
</radialGradient>
</defs>
</svg>
